<?xml version="1.0" encoding="utf-8"?>
<svg version="1.1" id="Claw_Layer" xmlns="http://www.w3.org/2000/svg" xmlns:xlink="http://www.w3.org/1999/xlink" x="0px" y="0px"
	 viewBox="0 0 100 100" style="enable-background:new 0 0 100 100;" xml:space="preserve">
<style type="text/css">
	.st0{fill:none;stroke:#000000;stroke-width:2;stroke-miterlimit:10;}
</style>
<g id="Claw_Group">
	<circle class="st0" cx="64.2" cy="54.3" r="3.5"/>
	<path class="st0" d="M66.3,51.5l1.4-2.1c0,0,1.5-23.9-7.1-32.4l0,18l3.4,3.5l-3.4,2.3l0,8.3l1.4,2.4"/>
	<polyline class="st0" points="64.8,84.1 64.8,78.9 72.6,67.9 72.6,52.9 67.7,47.1 	"/>
	<line class="st0" x1="60.7" y1="43.2" x2="53.6" y2="40.1"/>
	<line class="st0" x1="55.9" y1="84.1" x2="55.9" y2="78.2"/>
	<line class="st0" x1="44.1" y1="84.1" x2="44.1" y2="78.2"/>
	<path class="st0" d="M50,90.1H33.7c-0.4,0-0.7-0.3-0.7-0.7v-4.6c0-0.4,0.3-0.7,0.7-0.7H50h16.3c0.4,0,0.7,0.3,0.7,0.7v4.6
		c0,0.4-0.3,0.7-0.7,0.7H50z"/>
	<polyline class="st0" points="35.2,84.1 35.2,78.9 27.4,67.9 27.4,52.9 32.3,47.1 	"/>
	<circle class="st0" cx="35.8" cy="54.3" r="3.5"/>
	<path class="st0" d="M37.9,51.5l1.4-2.4l0-12.5l-2.2-1.5l2.2-2.3l0-15.8c-8.6,8.5-7.1,32.4-7.1,32.4l1.4,2.1"/>
	<line class="st0" x1="39.3" y1="43.2" x2="46.4" y2="40.1"/>
	<path class="st0" d="M48,46.3l-1.5-2.7c0,0-0.8-23.7,3.5-32.4c4.3,8.7,3.5,32.4,3.5,32.4L52,46.3"/>
	<path class="st0" d="M50,52.9c-1.9,0-3.5-1.6-3.5-3.5c0-1.9,1.6-3.5,3.5-3.5c1.9,0,3.5,1.6,3.5,3.5C53.5,51.3,51.9,52.9,50,52.9z"
		/>
	<line class="st0" x1="50" y1="52.9" x2="50" y2="59.2"/>
</g>
</svg>
